<svg id="visual" viewBox="0 0 960 540" width="960" height="540" xmlns="http://www.w3.org/2000/svg" xmlns:xlink="http://www.w3.org/1999/xlink" version="1.1"><rect x="0" y="0" width="960" height="540" fill="#fffefb"></rect><defs><linearGradient id="grad1_0" x1="43.8%" y1="100%" x2="100%" y2="0%"><stop offset="14.444444444444446%" stop-color="#fffefb" stop-opacity="1"></stop><stop offset="85.55555555555554%" stop-color="#fffefb" stop-opacity="1"></stop></linearGradient></defs><defs><linearGradient id="grad2_0" x1="0%" y1="100%" x2="56.3%" y2="0%"><stop offset="14.444444444444446%" stop-color="#fffefb" stop-opacity="1"></stop><stop offset="85.55555555555554%" stop-color="#fffefb" stop-opacity="1"></stop></linearGradient></defs><g transform="translate(960, 540)"><path d="M-243 0C-215.7 -30.1 -188.3 -60.3 -171.5 -99C-154.6 -137.7 -148.3 -185 -121.5 -210.4C-94.7 -235.9 -47.3 -239.4 0 -243L0 0Z" fill="#C8D5B9"></path></g><g transform="translate(0, 0)"><path d="M243 0C237.6 44.1 232.1 88.2 210.4 121.5C188.7 154.8 150.8 177.3 113 195.7C75.2 214.2 37.6 228.6 0 243L0 0Z" fill="#C8D5B9"></path></g></svg>