<svg id="visual" viewBox="0 0 960 540" width="960" height="540" xmlns="http://www.w3.org/2000/svg" xmlns:xlink="http://www.w3.org/1999/xlink" version="1.1"><g transform="translate(485.5175147798284 294.70637985419773)"><path d="M153.5 -192.3C202.8 -175.5 249.3 -135.8 265.7 -86.1C282.1 -36.5 268.5 23.2 240.2 68C211.9 112.9 168.8 143 126.3 162.7C83.9 182.4 41.9 191.7 4.4 185.6C-33.1 179.5 -66.1 158 -107.7 138C-149.2 118 -199.2 99.5 -234.5 59.9C-269.8 20.3 -290.4 -40.4 -281.9 -99.4C-273.5 -158.4 -235.9 -215.7 -184.1 -231.7C-132.3 -247.7 -66.1 -222.3 -7 -212.7C52.1 -203.1 104.2 -209.1 153.5 -192.3" fill="#C8D5B9"></path></g></svg>